  0
SECTION
  2
HEADER
  9
$ACADVER
  1
AC1009
  9
$FILLMODE
 70
 0
  9
$SPLFRAME
 70
 1
  9
$EXTMIN
 10
0
 20
0
 30
0.0
  9
$EXTMAX
 10
41.6667
 20
41.6667
 30
0.0
  0
ENDSEC
  0
SECTION
  2
TABLES
  0
TABLE
  2
LAYER
 70
1
  0
LAYER
  2
0
 70
     0
 62
     7
  6
CONTINUOUS
  0
ENDTAB
  0
ENDSEC
  0
SECTION
  2
ENTITIES
  0
POLYLINE
  8
0
 62
     2
 66
     1
 10
0
 20
0
 30
0.0
 40
0.074
 41
0.074
  0
VERTEX
  8
0
 10
1.41249
 20
0.0236003
 30
0.0
 40
0.00102778
 41
0.00102778
  0
VERTEX
  8
0
 10
9.69863
 20
0.0236003
 30
0.0
 40
0.00102778
 41
0.00102778
  0
SEQEND
 8
0
  0
POLYLINE
  8
0
 62
     142
 66
     1
 10
0
 20
0
 30
0.0
 40
0.074
 41
0.074
  0
VERTEX
  8
0
 10
9.69863
 20
0.0236003
 30
0.0
 40
0.00102778
 41
0.00102778
  0
VERTEX
  8
0
 10
9.69863
 20
8.30974
 30
0.0
 40
0.00102778
 41
0.00102778
  0
SEQEND
 8
0
  0
POLYLINE
  8
0
 62
     1
 66
     1
 10
0
 20
0
 30
0.0
 40
0.074
 41
0.074
  0
VERTEX
  8
0
 10
9.69863
 20
8.30974
 30
0.0
 40
0.00102778
 41
0.00102778
  0
VERTEX
  8
0
 10
9.60292
 20
8.30919
 30
0.0
 40
0.00102778
 41
0.00102778
  0
VERTEX
  8
0
 10
9.50722
 20
8.30751
 30
0.0
 40
0.00102778
 41
0.00102778
  0
VERTEX
  8
0
 10
9.41151
 20
8.30474
 30
0.0
 40
0.00102778
 41
0.00102778
  0
VERTEX
  8
0
 10
9.31597
 20
8.301
 30
0.0
 40
0.00102778
 41
0.00102778
  0
VERTEX
  8
0
 10
9.22043
 20
8.29596
 30
0.0
 40
0.00102778
 41
0.00102778
  0
VERTEX
  8
0
 10
9.12483
 20
8.28987
 30
0.0
 40
0.00102778
 41
0.00102778
  0
VERTEX
  8
0
 10
9.02946
 20
8.28267
 30
0.0
 40
0.00102778
 41
0.00102778
  0
VERTEX
  8
0
 10
8.93403
 20
8.27447
 30
0.0
 40
0.00102778
 41
0.00102778
  0
VERTEX
  8
0
 10
8.83886
 20
8.26497
 30
0.0
 40
0.00102778
 41
0.00102778
  0
VERTEX
  8
0
 10
8.74376
 20
8.25456
 30
0.0
 40
0.00102778
 41
0.00102778
  0
VERTEX
  8
0
 10
8.64876
 20
8.24289
 30
0.0
 40
0.00102778
 41
0.00102778
  0
VERTEX
  8
0
 10
8.55388
 20
8.23025
 30
0.0
 40
0.00102778
 41
0.00102778
  0
VERTEX
  8
0
 10
8.45915
 20
8.21653
 30
0.0
 40
0.00102778
 41
0.00102778
  0
VERTEX
  8
0
 10
8.36458
 20
8.20167
 30
0.0
 40
0.00102778
 41
0.00102778
  0
VERTEX
  8
0
 10
8.27029
 20
8.18571
 30
0.0
 40
0.00102778
 41
0.00102778
  0
VERTEX
  8
0
 10
8.17611
 20
8.16862
 30
0.0
 40
0.00102778
 41
0.00102778
  0
VERTEX
  8
0
 10
8.08208
 20
8.15056
 30
0.0
 40
0.00102778
 41
0.00102778
  0
VERTEX
  8
0
 10
7.98833
 20
8.1314
 30
0.0
 40
0.00102778
 41
0.00102778
  0
VERTEX
  8
0
 10
7.89486
 20
8.11094
 30
0.0
 40
0.00102778
 41
0.00102778
  0
VERTEX
  8
0
 10
7.80154
 20
8.08974
 30
0.0
 40
0.00102778
 41
0.00102778
  0
VERTEX
  8
0
 10
7.7085
 20
8.06722
 30
0.0
 40
0.00102778
 41
0.00102778
  0
VERTEX
  8
0
 10
7.61567
 20
8.04372
 30
0.0
 40
0.00102778
 41
0.00102778
  0
VERTEX
  8
0
 10
7.52322
 20
8.01904
 30
0.0
 40
0.00102778
 41
0.00102778
  0
VERTEX
  8
0
 10
7.43099
 20
7.99349
 30
0.0
 40
0.00102778
 41
0.00102778
  0
VERTEX
  8
0
 10
7.33919
 20
7.96669
 30
0.0
 40
0.00102778
 41
0.00102778
  0
VERTEX
  8
0
 10
7.2475
 20
7.93892
 30
0.0
 40
0.00102778
 41
0.00102778
  0
VERTEX
  8
0
 10
7.20725
 20
7.92626
 30
0.0
 40
0.00102778
 41
0.00102778
  0
SEQEND
 8
0
  0
POLYLINE
  8
0
 62
     1
 66
     1
 10
0
 20
0
 30
0.0
 40
0.074
 41
0.074
  0
VERTEX
  8
0
 10
4.58306
 20
6.54194
 30
0.0
 40
0.00102778
 41
0.00102778
  0
VERTEX
  8
0
 10
4.55376
 20
6.51904
 30
0.0
 40
0.00102778
 41
0.00102778
  0
VERTEX
  8
0
 10
4.479
 20
6.45915
 30
0.0
 40
0.00102778
 41
0.00102778
  0
VERTEX
  8
0
 10
4.405
 20
6.39849
 30
0.0
 40
0.00102778
 41
0.00102778
  0
VERTEX
  8
0
 10
4.33182
 20
6.33681
 30
0.0
 40
0.00102778
 41
0.00102778
  0
VERTEX
  8
0
 10
4.25917
 20
6.27447
 30
0.0
 40
0.00102778
 41
0.00102778
  0
VERTEX
  8
0
 10
4.18733
 20
6.21126
 30
0.0
 40
0.00102778
 41
0.00102778
  0
VERTEX
  8
0
 10
4.11626
 20
6.14708
 30
0.0
 40
0.00102778
 41
0.00102778
  0
VERTEX
  8
0
 10
4.04596
 20
6.08225
 30
0.0
 40
0.00102778
 41
0.00102778
  0
VERTEX
  8
0
 10
3.9764
 20
6.01654
 30
0.0
 40
0.00102778
 41
0.00102778
  0
VERTEX
  8
0
 10
3.9075
 20
5.95014
 30
0.0
 40
0.00102778
 41
0.00102778
  0
VERTEX
  8
0
 10
3.83946
 20
5.88276
 30
0.0
 40
0.00102778
 41
0.00102778
  0
VERTEX
  8
0
 10
3.77208
 20
5.81472
 30
0.0
 40
0.00102778
 41
0.00102778
  0
VERTEX
  8
0
 10
3.70568
 20
5.74582
 30
0.0
 40
0.00102778
 41
0.00102778
  0
VERTEX
  8
0
 10
3.63997
 20
5.67626
 30
0.0
 40
0.00102778
 41
0.00102778
  0
VERTEX
  8
0
 10
3.57514
 20
5.60596
 30
0.0
 40
0.00102778
 41
0.00102778
  0
VERTEX
  8
0
 10
3.51096
 20
5.53489
 30
0.0
 40
0.00102778
 41
0.00102778
  0
VERTEX
  8
0
 10
3.44775
 20
5.46306
 30
0.0
 40
0.00102778
 41
0.00102778
  0
VERTEX
  8
0
 10
3.38542
 20
5.3904
 30
0.0
 40
0.00102778
 41
0.00102778
  0
VERTEX
  8
0
 10
3.32374
 20
5.31722
 30
0.0
 40
0.00102778
 41
0.00102778
  0
VERTEX
  8
0
 10
3.26307
 20
5.24322
 30
0.0
 40
0.00102778
 41
0.00102778
  0
VERTEX
  8
0
 10
3.20318
 20
5.16846
 30
0.0
 40
0.00102778
 41
0.00102778
  0
VERTEX
  8
0
 10
3.18028
 20
5.13917
 30
0.0
 40
0.00102778
 41
0.00102778
  0
SEQEND
 8
0
  0
POLYLINE
  8
0
 62
     1
 66
     1
 10
0
 20
0
 30
0.0
 40
0.074
 41
0.074
  0
VERTEX
  8
0
 10
1.79596
 20
2.51497
 30
0.0
 40
0.00102778
 41
0.00102778
  0
VERTEX
  8
0
 10
1.78331
 20
2.47472
 30
0.0
 40
0.00102778
 41
0.00102778
  0
VERTEX
  8
0
 10
1.75553
 20
2.38303
 30
0.0
 40
0.00102778
 41
0.00102778
  0
VERTEX
  8
0
 10
1.72874
 20
2.29124
 30
0.0
 40
0.00102778
 41
0.00102778
  0
VERTEX
  8
0
 10
1.70318
 20
2.199
 30
0.0
 40
0.00102778
 41
0.00102778
  0
VERTEX
  8
0
 10
1.6785
 20
2.10656
 30
0.0
 40
0.00102778
 41
0.00102778
  0
VERTEX
  8
0
 10
1.655
 20
2.01372
 30
0.0
 40
0.00102778
 41
0.00102778
  0
VERTEX
  8
0
 10
1.63249
 20
1.92068
 30
0.0
 40
0.00102778
 41
0.00102778
  0
VERTEX
  8
0
 10
1.61128
 20
1.82736
 30
0.0
 40
0.00102778
 41
0.00102778
  0
VERTEX
  8
0
 10
1.59082
 20
1.73389
 30
0.0
 40
0.00102778
 41
0.00102778
  0
VERTEX
  8
0
 10
1.57167
 20
1.64014
 30
0.0
 40
0.00102778
 41
0.00102778
  0
VERTEX
  8
0
 10
1.5536
 20
1.54611
 30
0.0
 40
0.00102778
 41
0.00102778
  0
VERTEX
  8
0
 10
1.53651
 20
1.45193
 30
0.0
 40
0.00102778
 41
0.00102778
  0
VERTEX
  8
0
 10
1.52056
 20
1.35764
 30
0.0
 40
0.00102778
 41
0.00102778
  0
VERTEX
  8
0
 10
1.50569
 20
1.26307
 30
0.0
 40
0.00102778
 41
0.00102778
  0
VERTEX
  8
0
 10
1.49197
 20
1.16835
 30
0.0
 40
0.00102778
 41
0.00102778
  0
VERTEX
  8
0
 10
1.47933
 20
1.07346
 30
0.0
 40
0.00102778
 41
0.00102778
  0
VERTEX
  8
0
 10
1.46767
 20
0.978461
 30
0.0
 40
0.00102778
 41
0.00102778
  0
VERTEX
  8
0
 10
1.45725
 20
0.883356
 30
0.0
 40
0.00102778
 41
0.00102778
  0
VERTEX
  8
0
 10
1.44775
 20
0.788194
 30
0.0
 40
0.00102778
 41
0.00102778
  0
VERTEX
  8
0
 10
1.43956
 20
0.692762
 30
0.0
 40
0.00102778
 41
0.00102778
  0
VERTEX
  8
0
 10
1.43235
 20
0.597385
 30
0.0
 40
0.00102778
 41
0.00102778
  0
VERTEX
  8
0
 10
1.42626
 20
0.50179
 30
0.0
 40
0.00102778
 41
0.00102778
  0
VERTEX
  8
0
 10
1.42122
 20
0.40625
 30
0.0
 40
0.00102778
 41
0.00102778
  0
VERTEX
  8
0
 10
1.41749
 20
0.31071
 30
0.0
 40
0.00102778
 41
0.00102778
  0
VERTEX
  8
0
 10
1.41471
 20
0.215007
 30
0.0
 40
0.00102778
 41
0.00102778
  0
VERTEX
  8
0
 10
1.41303
 20
0.119303
 30
0.0
 40
0.00102778
 41
0.00102778
  0
VERTEX
  8
0
 10
1.41249
 20
0.0236003
 30
0.0
 40
0.00102778
 41
0.00102778
  0
SEQEND
 8
0
  0
POLYLINE
  8
0
 62
     102
 66
     1
 10
0
 20
0
 30
0.0
 70
     1
 40
0.074
 41
0.074
  0
VERTEX
  8
0
 10
0.0951606
 20
0.0236003
 30
0.0
 40
0.00102778
 41
0.00102778
  0
VERTEX
  8
0
 10
0.0951606
 20
8.30974
 30
0.0
 40
0.00102778
 41
0.00102778
  0
VERTEX
  8
0
 10
11.0159
 20
8.30974
 30
0.0
 40
0.00102778
 41
0.00102778
  0
VERTEX
  8
0
 10
11.0159
 20
0.0236003
 30
0.0
 40
0.00102778
 41
0.00102778
  0
VERTEX
  8
0
 10
0.0951606
 20
0.0236003
 30
0.0
 40
0.00102778
 41
0.00102778
  0
SEQEND
 8
0
  0
POLYLINE
  8
0
 62
     102
 66
     1
 10
0
 20
0
 30
0.0
 70
     1
 40
0.074
 41
0.074
  0
VERTEX
  8
0
 10
0.0951606
 20
0.0236003
 30
0.0
 40
0.00102778
 41
0.00102778
  0
VERTEX
  8
0
 10
0.0951606
 20
8.30974
 30
0.0
 40
0.00102778
 41
0.00102778
  0
VERTEX
  8
0
 10
11.0159
 20
8.30974
 30
0.0
 40
0.00102778
 41
0.00102778
  0
VERTEX
  8
0
 10
11.0159
 20
0.0236003
 30
0.0
 40
0.00102778
 41
0.00102778
  0
VERTEX
  8
0
 10
0.0951606
 20
0.0236003
 30
0.0
 40
0.00102778
 41
0.00102778
  0
SEQEND
 8
0
  0
ENDSEC
  0
EOF
